<?xml version="1.0" encoding="UTF-8" standalone="no"?>
<svg
   xmlns:dc="http://purl.org/dc/elements/1.1/"
   xmlns:cc="http://creativecommons.org/ns#"
   xmlns:rdf="http://www.w3.org/1999/02/22-rdf-syntax-ns#"
   xmlns:svg="http://www.w3.org/2000/svg"
   xmlns="http://www.w3.org/2000/svg"
   xmlns:sodipodi="http://sodipodi.sourceforge.net/DTD/sodipodi-0.dtd"
   xmlns:inkscape="http://www.inkscape.org/namespaces/inkscape"
   height="32"
   width="32"
   version="1.1"
   id="svg51"
   sodipodi:docname="tutorial.svg"
   inkscape:version="1.0.2 (e86c870879, 2021-01-15)">
  <metadata
     id="metadata57">
    <rdf:RDF>
      <cc:Work
         rdf:about="">
        <dc:format>image/svg+xml</dc:format>
        <dc:type
           rdf:resource="http://purl.org/dc/dcmitype/StillImage" />
      </cc:Work>
    </rdf:RDF>
  </metadata>
  <defs
     id="defs55" />
  <sodipodi:namedview
     pagecolor="#ffffff"
     bordercolor="#666666"
     borderopacity="1"
     objecttolerance="10"
     gridtolerance="10"
     guidetolerance="10"
     inkscape:pageopacity="0"
     inkscape:pageshadow="2"
     inkscape:window-width="1920"
     inkscape:window-height="1019"
     id="namedview53"
     showgrid="false"
     inkscape:zoom="13.078125"
     inkscape:cx="27.746872"
     inkscape:cy="19.002642"
     inkscape:window-x="0"
     inkscape:window-y="0"
     inkscape:window-maximized="1"
     inkscape:current-layer="g931"
     inkscape:document-rotation="0" />
  <radialGradient
     id="a"
     cx="24.837126"
     cy="36.421127"
     gradientTransform="matrix(-.52995454 0 0 -.35307735 22.512547 21.835677)"
     gradientUnits="userSpaceOnUse"
     r="15.644737">
    <stop
       offset="0"
       id="stop2" />
    <stop
       offset="1"
       stop-opacity="0"
       id="stop4" />
  </radialGradient>
  <linearGradient
     id="b"
     gradientTransform="matrix(-1.3333333 0 0 1.3333333 30.994621 1.333335)"
     gradientUnits="userSpaceOnUse"
     x1="12"
     x2="12"
     y1="4"
     y2="19.275499">
    <stop
       offset="0"
       stop-color="#ffe16b"
       id="stop7" />
    <stop
       offset="1"
       stop-color="#f9c440"
       id="stop9" />
  </linearGradient>
  <linearGradient
     id="c"
     gradientTransform="matrix(1.4687933 0 0 1.4416821 16.894776 -24.641344)"
     gradientUnits="userSpaceOnUse"
     x1="-2.521394"
     x2="-2.521394"
     y1="22.402153"
     y2="35.268829">
    <stop
       offset="0"
       stop-color="#fff"
       id="stop12" />
    <stop
       offset=".51999998"
       stop-color="#fff"
       stop-opacity=".235294"
       id="stop14" />
    <stop
       offset=".51999998"
       stop-color="#fff"
       stop-opacity=".156863"
       id="stop16" />
    <stop
       offset="1"
       stop-color="#fff"
       stop-opacity=".392157"
       id="stop18" />
  </linearGradient>
  <linearGradient
     id="d"
     gradientTransform="matrix(1.3395186 0 0 1.3333333 9.444426 -22.062251)"
     gradientUnits="userSpaceOnUse"
     x1="5.884986"
     x2="5.884986"
     y1="27.314026"
     y2="35.272106">
    <stop
       offset="0"
       stop-color="#fff"
       id="stop21" />
    <stop
       offset=".58888781"
       stop-color="#fff"
       stop-opacity=".235294"
       id="stop23" />
    <stop
       offset="1"
       stop-color="#fff"
       stop-opacity=".156863"
       id="stop25" />
    <stop
       offset="1"
       stop-color="#fff"
       stop-opacity=".392157"
       id="stop27" />
  </linearGradient>
  <linearGradient
     id="e"
     gradientTransform="matrix(1.3395186 0 0 1.3333333 9.444426 -21.067459)"
     gradientUnits="userSpaceOnUse"
     x1="5.884986"
     x2="5.884986"
     y1="20.383398"
     y2="38.171688">
    <stop
       offset="0"
       stop-color="#fff"
       id="stop30" />
    <stop
       offset=".501194"
       stop-color="#fff"
       stop-opacity=".235294"
       id="stop32" />
    <stop
       offset="1"
       stop-color="#fff"
       stop-opacity=".156863"
       id="stop34" />
    <stop
       offset="1"
       stop-color="#fff"
       stop-opacity=".392157"
       id="stop36" />
  </linearGradient>
  <g
     id="XMLID_184_"
     transform="matrix(1.1997155,0,0,1.1997155,1.603414,-2.1440672)"
     style="fill:#ff0000">
    <path
       d="M 23.498,6.186 C 23.222,5.147 22.409,4.328 21.376,4.05 19.505,3.546 12,3.546 12,3.546 c 0,0 -7.505,0 -9.377,0.504 C 1.591,4.328 0.778,5.146 0.502,6.186 0,8.07 0,12 0,12 c 0,0 0,3.93 0.502,5.814 0.276,1.039 1.089,1.858 2.122,2.136 1.871,0.504 9.376,0.504 9.376,0.504 0,0 7.505,0 9.377,-0.504 1.032,-0.278 1.845,-1.096 2.122,-2.136 C 24,15.93 24,12 24,12 24,12 24,8.07 23.498,6.186 Z M 9.546,15.569 V 8.431 L 15.818,12 Z"
       id="path882"
       style="fill:#ff0000" />
  </g>
  <g
     id="g931"
     transform="matrix(0.91392341,0,0,0.91392341,25.310689,-3.8086198)">
    <path
       style="fill:#ffffff;stroke:#c83737;stroke-width:0.1;stroke-linecap:butt;stroke-linejoin:miter;stroke-miterlimit:4;stroke-dasharray:none;stroke-opacity:1"
       d="m -23.95512,26.438407 15.2957626,-4.417503 14.5593062,3.70699 -6.28461452,2.399598 -0.0446281,5.945657 C -6.2498556,36.75592 -11.80709,35.968818 -16.765514,34.129429 l -0.0619,-5.615688 z"
       id="path921"
       sodipodi:nodetypes="cccccccc" />
    <g
       id="g919"
       transform="matrix(0.33369315,0,0,0.33369315,-25.022531,14.323377)">
      <path
         d="m 50.32,50.57 a 0.84,0.84 0 0 1 -0.27,0 L 2.73,37.27 a 1,1 0 0 1 0,-1.93 l 46.2,-13.26 a 0.92,0.92 0 0 1 0.52,0 l 43.8,11.16 a 1,1 0 0 1 0.09,1.91 L 50.66,50.51 a 1,1 0 0 1 -0.34,0.06 z M 6.66,36.29 50.28,48.52 89.59,34.37 49.21,24.07 Z"
         id="path894" />
      <path
         d="M 49.19,65 A 70.55,70.55 0 0 1 24.24,60.44 1,1 0 0 1 23.59,59.5 V 42.36 a 1,1 0 0 1 2,0 V 58.8 a 68.63,68.63 0 0 0 47.2,0 V 41.12 a 1,1 0 1 1 2,0 V 59.49 A 1,1 0 0 1 74.15,60.43 70.61,70.61 0 0 1 49.19,65 Z"
         id="path896" />
      <path
         d="m 80.82,59.78 a 1,1 0 0 1 -1,-1 V 38.59 a 1,1 0 0 1 2,0 v 20.19 a 1,1 0 0 1 -1,1 z"
         id="path898" />
      <path
         d="M 80.82,64.23 A 3.23,3.23 0 1 1 84,61 3.23,3.23 0 0 1 80.82,64.23 Z m 0,-4.45 A 1.23,1.23 0 1 0 82,61 1.22,1.22 0 0 0 80.82,59.78 Z"
         id="path900" />
      <path
         d="M 80.82,39.59 H 80.69 L 49.06,35.32 a 1.0090714,1.0090714 0 1 1 0.27,-2 L 81,37.6 a 1.0021103,1.0021103 0 0 1 -0.13,2 z"
         id="path902" />
      <path
         d="m 87.34,74 h -0.08 c -6.4,-0.5 -8,-7.3 -8,-10.82 a 1,1 0 0 1 1,-1 v 0 a 1,1 0 0 1 1,1 c 0,0.34 0,8.13 5.92,8.79 0.9,-0.36 2.67,-1.28 3,-2.38 -2,-0.53 -7,-2.28 -8.59,-6.86 a 1.002447,1.002447 0 1 1 1.9,-0.64 c 1.52,4.52 7.81,5.71 7.87,5.72 a 1,1 0 0 1 0.8,0.77 c 0.59,2.77 -2.55,4.66 -4.5,5.35 A 1.26,1.26 0 0 1 87.34,74 Z"
         id="path904" />
    </g>
  </g>
</svg>
